HIERARCHY
ROOT hip
{
OFFSET -2.10 94.16 8.30
CHANNELS 6 Xposition Yposition Zposition Zrotation Xrotation Yrotation
JOINT abdomen
{
OFFSET 0 7.23 0
CHANNELS 6 Xposition Yposition Zposition Zrotation Xrotation Yrotation
JOINT chest
{
OFFSET 0 16.54 0
CHANNELS 6 Xposition Yposition Zposition Zrotation Xrotation Yrotation
JOINT neck
{
OFFSET 0 34.21 0
CHANNELS 6 Xposition Yposition Zposition Zrotation Xrotation Yrotation
JOINT head
{
OFFSET 0 6.29 0
CHANNELS 6 Xposition Yposition Zposition Zrotation Xrotation Yrotation
End Site
{
OFFSET 0 21.21 0
}
}
}
JOINT lCollar
{
OFFSET 4.06 26.61 -1.12
CHANNELS 6 Xposition Yposition Zposition Zrotation Xrotation Yrotation
JOINT lShldr
{
OFFSET 14.17 0 0
CHANNELS 6 Xposition Yposition Zposition Zrotation Xrotation Yrotation
JOINT lForeArm
{
OFFSET 26.12 0 0
CHANNELS 6 Xposition Yposition Zposition Zrotation Xrotation Yrotation
JOINT lHand
{
OFFSET 27.71 0 0
CHANNELS 6 Xposition Yposition Zposition Zrotation Xrotation Yrotation
JOINT lThumb1
{
OFFSET 2.29 -0.46 1.83
CHANNELS 6 Xposition Yposition Zposition Zrotation Xrotation Yrotation
JOINT lThumb2
{
OFFSET 5.29 0 0
CHANNELS 6 Xposition Yposition Zposition Zrotation Xrotation Yrotation
JOINT lThumb3
{
OFFSET 3.01 0 0
CHANNELS 6 Xposition Yposition Zposition Zrotation Xrotation Yrotation
End Site
{
OFFSET 2.62 0 0
}
}
}
}
JOINT lIndex1
{
OFFSET 9.37 0.29 2.59
CHANNELS 6 Xposition Yposition Zposition Zrotation Xrotation Yrotation
JOINT lIndex2
{
OFFSET 4.34 0 0
CHANNELS 6 Xposition Yposition Zposition Zrotation Xrotation Yrotation
JOINT lIndex3
{
OFFSET 2.16 0 0
CHANNELS 6 Xposition Yposition Zposition Zrotation Xrotation Yrotation
End Site
{
OFFSET 2.20 0 0
}
}
}
}
JOINT lMid1
{
OFFSET 9.47 0.83 0.29
CHANNELS 6 Xposition Yposition Zposition Zrotation Xrotation Yrotation
JOINT lMid2
{
OFFSET 4.77 0 0
CHANNELS 6 Xposition Yposition Zposition Zrotation Xrotation Yrotation
JOINT lMid3
{
OFFSET 2.87 0 0
CHANNELS 6 Xposition Yposition Zposition Zrotation Xrotation Yrotation
End Site
{
OFFSET 2.09 0 0
}
}
}
}
JOINT lRing1
{
OFFSET 8.65 1.01 -1.70
CHANNELS 6 Xposition Yposition Zposition Zrotation Xrotation Yrotation
JOINT lRing2
{
OFFSET 4.54 0 0
CHANNELS 6 Xposition Yposition Zposition Zrotation Xrotation Yrotation
JOINT lRing3
{
OFFSET 2.50 0 0
CHANNELS 6 Xposition Yposition Zposition Zrotation Xrotation Yrotation
End Site
{
OFFSET 2.20 0 0
}
}
}
}
JOINT lPinky1
{
OFFSET 7.69 0.66 -3.90
CHANNELS 6 Xposition Yposition Zposition Zrotation Xrotation Yrotation
JOINT lPinky2
{
OFFSET 3.21 0 0
CHANNELS 6 Xposition Yposition Zposition Zrotation Xrotation Yrotation
JOINT lPinky3
{
OFFSET 1.92 0 0
CHANNELS 6 Xposition Yposition Zposition Zrotation Xrotation Yrotation
End Site
{
OFFSET 1.78 0 0
}
}
}
}
}
}
}
}
JOINT rCollar
{
OFFSET -4.06 26.61 -1.12
CHANNELS 6 Xposition Yposition Zposition Zrotation Xrotation Yrotation
JOINT rShldr
{
OFFSET -14.17 0 0
CHANNELS 6 Xposition Yposition Zposition Zrotation Xrotation Yrotation
JOINT rForeArm
{
OFFSET -26.12 0 0
CHANNELS 6 Xposition Yposition Zposition Zrotation Xrotation Yrotation
JOINT rHand
{
OFFSET -27.71 0 0
CHANNELS 6 Xposition Yposition Zposition Zrotation Xrotation Yrotation
JOINT rThumb1
{
OFFSET -2.29 -0.46 1.83
CHANNELS 6 Xposition Yposition Zposition Zrotation Xrotation Yrotation
JOINT rThumb2
{
OFFSET -5.29 0 0
CHANNELS 6 Xposition Yposition Zposition Zrotation Xrotation Yrotation
JOINT rThumb3
{
OFFSET -3.01 0 0
CHANNELS 6 Xposition Yposition Zposition Zrotation Xrotation Yrotation
End Site
{
OFFSET -2.62 0 0
}
}
}
}
JOINT rIndex1
{
OFFSET -9.37 0.29 2.59
CHANNELS 6 Xposition Yposition Zposition Zrotation Xrotation Yrotation
JOINT rIndex2
{
OFFSET -4.34 0 0
CHANNELS 6 Xposition Yposition Zposition Zrotation Xrotation Yrotation
JOINT rIndex3
{
OFFSET -2.16 0 0
CHANNELS 6 Xposition Yposition Zposition Zrotation Xrotation Yrotation
End Site
{
OFFSET -2.20 0 0
}
}
}
}
JOINT rMid1
{
OFFSET -9.47 0.83 0.29
CHANNELS 6 Xposition Yposition Zposition Zrotation Xrotation Yrotation
JOINT rMid2
{
OFFSET -4.77 0 0
CHANNELS 6 Xposition Yposition Zposition Zrotation Xrotation Yrotation
JOINT rMid3
{
OFFSET -2.87 0 0
CHANNELS 6 Xposition Yposition Zposition Zrotation Xrotation Yrotation
End Site
{
OFFSET -2.09 0 0
}
}
}
}
JOINT rRing1
{
OFFSET -8.65 1.01 -1.70
CHANNELS 6 Xposition Yposition Zposition Zrotation Xrotation Yrotation
JOINT rRing2
{
OFFSET -4.54 0 0
CHANNELS 6 Xposition Yposition Zposition Zrotation Xrotation Yrotation
JOINT rRing3
{
OFFSET -2.50 0 0
CHANNELS 6 Xposition Yposition Zposition Zrotation Xrotation Yrotation
End Site
{
OFFSET -2.20 0 0
}
}
}
}
JOINT rPinky1
{
OFFSET -7.69 0.66 -3.90
CHANNELS 6 Xposition Yposition Zposition Zrotation Xrotation Yrotation
JOINT rPinky2
{
OFFSET -3.21 0 0
CHANNELS 6 Xposition Yposition Zposition Zrotation Xrotation Yrotation
JOINT rPinky3
{
OFFSET -1.92 0 0
CHANNELS 6 Xposition Yposition Zposition Zrotation Xrotation Yrotation
End Site
{
OFFSET -1.78 0 0
}
}
}
}
}
}
}
}
}
}
JOINT lThigh
{
OFFSET 8.73 -0 0
CHANNELS 6 Xposition Yposition Zposition Zrotation Xrotation Yrotation
JOINT lShin
{
OFFSET 0 -46.66 0
CHANNELS 6 Xposition Yposition Zposition Zrotation Xrotation Yrotation
JOINT lFoot
{
OFFSET 0 -40.14 0
CHANNELS 6 Xposition Yposition Zposition Zrotation Xrotation Yrotation
JOINT lToes
{
OFFSET 0 -8.88 14.22
CHANNELS 6 Xposition Yposition Zposition Zrotation Xrotation Yrotation
End Site
{
OFFSET 0 0 6.29
}
}
}
}
}
JOINT rThigh
{
OFFSET -8.73 0 -0
CHANNELS 6 Xposition Yposition Zposition Zrotation Xrotation Yrotation
JOINT rShin
{
OFFSET 0 -46.66 0
CHANNELS 6 Xposition Yposition Zposition Zrotation Xrotation Yrotation
JOINT rFoot
{
OFFSET 0 -40.14 0
CHANNELS 6 Xposition Yposition Zposition Zrotation Xrotation Yrotation
JOINT rToes
{
OFFSET 0 -8.88 14.22
CHANNELS 6 Xposition Yposition Zposition Zrotation Xrotation Yrotation
End Site
{
OFFSET 0 0 6.29
}
}
}
}
}
}
MOTION
Frames: 5
Frame Time: 0.03
3.22 92.57 202.24 -2.05 -0.88 -2.63 0 7.23 0 0.06 2.47 -1.12 0 16.54 0 -0.24 6.80 -2.20 0 34.21 0 1.21 44.98 -1.38 0 6.29 0 -4.68 -2.25 -2.75 4.06 26.61 -1.12 -7.25 -3.39 -3.50 14.17 0 0 -63.16 19.51 5.56 26.12 0 0 -0.69 0.35 -54.26 27.71 0 0 -14.60 -4.27 15.60 2.29 -0.46 1.83 6.49 69.77 -48.98 5.29 0 0 0.93 8.30 28.75 3.01 0 0 14.35 -2.14 1.97 9.37 0.29 2.59 -26.35 -2.14 0.97 4.34 0 0 -31.46 -1.63 6.79 2.16 0 0 -13.90 -0.36 2.57 9.47 0.83 0.29 -23.42 -4.75 3.70 4.77 0 0 -40.59 -3.78 10.45 2.87 0 0 -6.64 0 3.33 8.65 1.01 -1.70 -25.39 1.85 8.51 4.54 0 0 -25.98 -0.90 3.92 2.50 0 0 -0.18 0.06 1.08 7.69 0.66 -3.90 -27.09 -9.48 12.76 3.21 0 0 -21.47 0.07 3.65 1.92 0 0 -2.38 0.04 2.49 -4.06 26.61 -1.12 6.02 -3.02 10.05 -14.17 0 0 68.44 31.75 -17.26 -26.12 0 0 0.49 0.15 35.05 -27.71 0 0 11.61 -8.80 -2.80 -2.29 -0.46 1.83 -71.02 75.62 103.53 -5.29 0 0 12.06 -17.16 -16.64 -3.01 0 0 -22.59 -3.69 -10.01 -9.37 0.29 2.59 11.32 -1.26 5.73 -4.34 0 0 20.08 -0.51 -4.48 -2.16 0 0 22.23 -0.94 -4.35 -9.47 0.83 0.29 14.72 -4.27 -0.55 -4.77 0 0 30.84 -2.19 -8.25 -2.87 0 0 10.08 -0.11 -4.29 -8.65 1.01 -1.70 15.66 2.40 -4.59 -4.54 0 0 39.37 -2.05 -5.73 -2.50 0 0 3.35 -0.02 -1.59 -7.69 0.66 -3.90 22.41 -9.28 -0.42 -3.21 0 0 26.23 -2.19 -9.39 -1.92 0 0 5.77 -0.04 -3.75 8.73 -0 0 3.92 -15.40 19.37 0 -46.66 0 6.76 36.80 -0.76 0 -40.14 0 -2.56 -20.58 7.38 0 -8.88 14.22 0 0 0 -8.73 0 -0 -5.49 -15.30 -13.01 0 -46.66 0 -6.82 31.76 1.42 0 -40.14 0 8.76 -13.44 -6.87 0 -8.88 14.22 0 0 -0 
2.93 92.54 201.74 -1.15 -0.03 -0.29 0 7.23 0 0.22 3.00 -0.96 0 16.54 0 0.21 7.87 -1.93 0 34.21 0 1.84 45.36 -2.09 0 6.29 0 -4.29 -4.18 -4.80 4.06 26.61 -1.12 -6.66 -3.39 -4.24 14.17 0 0 -64.99 18.45 7.72 26.12 0 0 -0.71 0.37 -55.97 27.71 0 0 -14.60 -4.27 15.60 2.29 -0.46 1.83 6.49 69.77 -48.98 5.29 0 0 0.93 8.30 28.76 3.01 0 0 14.35 -2.14 1.97 9.37 0.29 2.59 -26.35 -2.14 0.97 4.34 0 0 -31.46 -1.63 6.79 2.16 0 0 -13.90 -0.36 2.57 9.47 0.83 0.29 -23.42 -4.75 3.70 4.77 0 0 -40.59 -3.78 10.45 2.87 0 0 -6.64 0 3.33 8.65 1.01 -1.70 -25.39 1.85 8.51 4.54 0 0 -25.98 -0.90 3.92 2.50 0 0 -0.18 0.06 1.08 7.69 0.66 -3.90 -27.09 -9.48 12.76 3.21 0 0 -21.47 0.07 3.65 1.92 0 0 -2.38 0.04 2.49 -4.06 26.61 -1.12 8.00 -2.59 11.13 -14.17 0 0 64.38 32.87 -15.93 -26.12 0 0 0.50 0.16 35.67 -27.71 0 0 9.93 -10.97 -2.37 -2.29 -0.46 1.83 -72.63 76.08 105.11 -5.29 0 0 12.09 -17.12 -16.57 -3.01 0 0 -22.63 -3.62 -10.21 -9.37 0.29 2.59 10.10 -1.23 5.85 -4.34 0 0 19.95 -0.50 -4.46 -2.16 0 0 22.16 -0.93 -4.34 -9.47 0.83 0.29 13.92 -4.23 -0.45 -4.77 0 0 30.77 -2.18 -8.23 -2.87 0 0 10.08 -0.11 -4.29 -8.65 1.01 -1.70 15.36 2.41 -4.53 -4.54 0 0 39.50 -2.06 -5.74 -2.50 0 0 3.34 -0.02 -1.59 -7.69 0.66 -3.90 22.21 -9.27 -0.41 -3.21 0 0 26.39 -2.22 -9.44 -1.92 0 0 5.76 -0.04 -3.75 8.73 -0 0 2.71 -16.80 18.27 0 -46.66 0 7.26 36.34 -2.27 0 -40.14 0 -2.33 -19.80 7.45 0 -8.88 14.22 0 0 0 -8.73 0 -0 -6.70 -16.46 -13.81 0 -46.66 0 -6.46 32.79 -0.19 0 -40.14 0 8.85 -13.85 -6.81 0 -8.88 14.22 0 0 0 
2.59 92.39 200.88 -0.36 1.49 1.79 0 7.23 0 0.42 3.56 -0.69 0 16.54 0 0.75 8.98 -1.46 0 34.21 0 2.33 45.70 -2.79 0 6.29 0 -3.48 -6.46 -7.32 4.06 26.61 -1.12 -6.05 -3.38 -5.19 14.17 0 0 -66.39 17.14 10.08 26.12 0 0 -0.73 0.40 -58.03 27.71 0 0 -14.60 -4.27 15.60 2.29 -0.46 1.83 6.49 69.77 -48.98 5.29 0 0 0.93 8.30 28.76 3.01 0 0 14.34 -2.14 1.97 9.37 0.29 2.59 -26.35 -2.14 0.97 4.34 0 0 -31.46 -1.63 6.79 2.16 0 0 -13.90 -0.36 2.57 9.47 0.83 0.29 -23.42 -4.75 3.70 4.77 0 0 -40.59 -3.78 10.45 2.87 0 0 -6.64 0 3.33 8.65 1.01 -1.70 -25.39 1.85 8.51 4.54 0 0 -25.98 -0.90 3.92 2.50 0 0 -0.18 0.06 1.08 7.69 0.66 -3.90 -27.09 -9.48 12.76 3.21 0 0 -21.47 0.07 3.65 1.92 0 0 -2.38 0.04 2.49 -4.06 26.61 -1.12 9.99 -2.08 12.43 -14.17 0 0 59.51 33.84 -14.39 -26.12 0 0 0.51 0.17 36.88 -27.71 0 0 8.09 -13.13 -2.18 -2.29 -0.46 1.83 -74.31 76.46 106.82 -5.29 0 0 12.16 -17.01 -16.36 -3.01 0 0 -22.67 -3.56 -10.40 -9.37 0.29 2.59 9.09 -1.21 5.96 -4.34 0 0 19.81 -0.49 -4.43 -2.16 0 0 22.09 -0.93 -4.32 -9.47 0.83 0.29 13.34 -4.21 -0.38 -4.77 0 0 30.71 -2.17 -8.22 -2.87 0 0 10.09 -0.11 -4.29 -8.65 1.01 -1.70 15.19 2.41 -4.46 -4.54 0 0 39.63 -2.07 -5.76 -2.50 0 0 3.32 -0.02 -1.59 -7.69 0.66 -3.90 22.16 -9.26 -0.38 -3.21 0 0 26.55 -2.24 -9.50 -1.92 0 0 5.75 -0.04 -3.74 8.73 -0 0 1.49 -19.25 16.91 0 -46.66 0 7.77 36.31 -3.12 0 -40.14 0 -2.29 -18.97 7.47 0 -8.88 14.22 0 0 0 -8.73 0 -0 -7.83 -18.74 -14.42 0 -46.66 0 -6.22 34.23 -2.06 0 -40.14 0 9.02 -14.16 -6.75 0 -8.88 14.22 0 0 -0 
2.23 92.15 199.77 0.73 3.56 3.93 0 7.23 0 0.60 4.13 -0.40 0 16.54 0 1.30 10.13 -0.93 0 34.21 0 2.72 45.88 -3.49 0 6.29 0 -2.49 -9.24 -10.17 4.06 26.61 -1.12 -5.36 -3.40 -6.22 14.17 0 0 -67.44 15.50 12.45 26.12 0 0 -0.74 0.43 -60.38 27.71 0 0 -14.60 -4.27 15.60 2.29 -0.46 1.83 6.49 69.77 -48.98 5.29 0 0 0.93 8.30 28.76 3.01 0 0 14.34 -2.14 1.97 9.37 0.29 2.59 -26.35 -2.14 0.97 4.34 0 0 -31.46 -1.63 6.79 2.16 0 0 -13.90 -0.36 2.57 9.47 0.83 0.29 -23.42 -4.75 3.70 4.77 0 0 -40.59 -3.78 10.45 2.87 0 0 -6.64 0 3.33 8.65 1.01 -1.70 -25.39 1.85 8.51 4.54 0 0 -25.98 -0.90 3.92 2.50 0 0 -0.18 0.06 1.08 7.69 0.66 -3.90 -27.09 -9.48 12.76 3.21 0 0 -21.47 0.07 3.65 1.92 0 0 -2.38 0.04 2.49 -4.06 26.61 -1.12 11.85 -1.58 13.66 -14.17 0 0 53.77 33.94 -12.31 -26.12 0 0 0.53 0.18 38.73 -27.71 0 0 6.79 -14.38 -2.35 -2.29 -0.46 1.83 -76.18 76.85 108.73 -5.29 0 0 12.27 -16.85 -16.04 -3.01 0 0 -22.70 -3.51 -10.54 -9.37 0.29 2.59 8.20 -1.20 6.09 -4.34 0 0 19.65 -0.48 -4.39 -2.16 0 0 22.03 -0.92 -4.31 -9.47 0.83 0.29 12.89 -4.20 -0.37 -4.77 0 0 30.64 -2.16 -8.20 -2.87 0 0 10.10 -0.12 -4.29 -8.65 1.01 -1.70 15.06 2.42 -4.38 -4.54 0 0 39.78 -2.09 -5.78 -2.50 0 0 3.32 -0.02 -1.59 -7.69 0.66 -3.90 22.14 -9.26 -0.32 -3.21 0 0 26.74 -2.27 -9.56 -1.92 0 0 5.75 -0.04 -3.74 8.73 -0 0 -0.30 -22.32 15.11 0 -46.66 0 8.13 36.32 -3.72 0 -40.14 0 -2.24 -17.99 7.50 0 -8.88 14.22 0 0 0 -8.73 0 -0 -9.58 -21.90 -15.34 0 -46.66 0 -6.19 36.27 -3.66 0 -40.14 0 9.28 -14.61 -6.65 0 -8.88 14.22 0 0 0 
1.83 91.79 198.46 2.00 6.51 6.13 0 7.23 0 0.76 4.70 -0.16 0 16.54 0 1.84 11.26 -0.47 0 34.21 0 3.27 45.81 -4.27 0 6.29 0 -1.80 -12.56 -13.08 4.06 26.61 -1.12 -4.17 -3.50 -7.11 14.17 0 0 -68.78 13.62 14.51 26.12 0 0 -0.76 0.46 -62.25 27.71 0 0 -14.60 -4.27 15.60 2.29 -0.46 1.83 6.49 69.77 -48.98 5.29 0 0 0.93 8.30 28.76 3.01 0 0 14.34 -2.14 1.97 9.37 0.29 2.59 -26.35 -2.14 0.97 4.34 0 0 -31.46 -1.63 6.79 2.16 0 0 -13.90 -0.36 2.57 9.47 0.83 0.29 -23.42 -4.75 3.70 4.77 0 0 -40.59 -3.78 10.45 2.87 0 0 -6.64 0 3.33 8.65 1.01 -1.70 -25.39 1.85 8.51 4.54 0 0 -25.98 -0.90 3.92 2.50 0 0 -0.18 0.06 1.08 7.69 0.66 -3.90 -27.09 -9.48 12.76 3.21 0 0 -21.47 0.07 3.65 1.92 0 0 -2.38 0.04 2.49 -4.06 26.61 -1.12 13.23 -1.20 14.40 -14.17 0 0 47.39 33.18 -9.13 -26.12 0 0 0.56 0.20 40.67 -27.71 0 0 6.31 -14.75 -2.79 -2.29 -0.46 1.83 -78.21 77.24 110.78 -5.29 0 0 12.42 -16.62 -15.60 -3.01 0 0 -22.70 -3.51 -10.52 -9.37 0.29 2.59 7.26 -1.18 6.23 -4.34 0 0 19.51 -0.47 -4.36 -2.16 0 0 21.98 -0.92 -4.30 -9.47 0.83 0.29 12.36 -4.18 -0.36 -4.77 0 0 30.54 -2.14 -8.18 -2.87 0 0 10.12 -0.12 -4.30 -8.65 1.01 -1.70 14.88 2.43 -4.30 -4.54 0 0 39.96 -2.11 -5.80 -2.50 0 0 3.36 -0.01 -1.59 -7.69 0.66 -3.90 22.04 -9.25 -0.23 -3.21 0 0 26.95 -2.31 -9.63 -1.92 0 0 5.75 -0.04 -3.75 8.73 -0 0 -2.62 -26.30 12.84 0 -46.66 0 8.23 36.43 -4.04 0 -40.14 0 -2.12 -16.90 7.54 0 -8.88 14.22 0 0 0 -8.73 0 -0 -12.10 -26.15 -16.77 0 -46.66 0 -6.22 38.84 -5.05 0 -40.14 0 9.54 -15.21 -6.54 0 -8.88 14.22 0 0 0 
